<svg width="24" height="24" viewBox="0 0 24 24" fill="none" xmlns="http://www.w3.org/2000/svg">
<path d="M6.995 12C6.995 14.761 9.241 17.007 12.002 17.007C14.763 17.007 17.009 14.761 17.009 12C17.009 9.239 14.763 6.993 12.002 6.993C9.241 6.993 6.995 9.239 6.995 12Z" fill="#859FB4"/>
<path d="M11 19H13V22H11V19Z" fill="#859FB4"/>
<path d="M11 2H13V5H11V2Z" fill="#859FB4"/>
<path d="M2 11H5V13H2V11Z" fill="#859FB4"/>
<path d="M19 11H22V13H19V11Z" fill="#859FB4"/>
<path d="M5.63672 19.7786L4.22253 18.3643L6.34389 16.243L7.75808 17.6573L5.63672 19.7786Z" fill="#859FB4"/>
<path d="M18.3642 4.22144L16.2422 6.34351L17.6564 7.75769L19.7784 5.63563L18.3642 4.22144Z" fill="#859FB4"/>
<path d="M6.34375 7.75854L4.22306 5.6366L5.63769 4.2228L7.75838 6.34475L6.34375 7.75854Z" fill="#859FB4"/>
<path d="M18.3632 19.7778L19.7773 18.3635L17.6553 16.2415L16.2411 17.6558L18.3632 19.7778Z" fill="#859FB4"/>
</svg>
