<?xml version="1.0" encoding="UTF-8"?>
<svg width="22px" height="14px" viewBox="0 0 22 14" version="1.1" xmlns="http://www.w3.org/2000/svg" xmlns:xlink="http://www.w3.org/1999/xlink">
    <!-- Generator: sketchtool 49.3 (51167) - http://www.bohemiancoding.com/sketch -->
    <title>5F2465BF-C846-4629-A2D0-48D567784CDA</title>
    <desc>Created with sketchtool.</desc>
    <defs></defs>
    <g id="Page-1" stroke="none" stroke-width="1" fill="none" fill-rule="evenodd">
        <g id="Desktop" transform="translate(-450.000000, -52.000000)" fill="#40AAFF">
            <g id="Logo-Be" transform="translate(450.000000, 52.000000)">
                <path d="M5.924625,10.79575 C6.204625,10.79575 6.474125,10.770375 6.726125,10.714375 C6.983375,10.658375 7.21,10.569125 7.401625,10.437875 C7.592375,10.311875 7.753375,10.138625 7.868,9.919 C7.9835,9.701125 8.038625,9.417625 8.038625,9.0755 C8.038625,8.40525 7.849625,7.928375 7.47425,7.639625 C7.098875,7.354375 6.5975,7.212625 5.980625,7.212625 L2.8665,7.212625 L2.8665,10.79575 L5.924625,10.79575 Z M5.7645,5.257 C6.271125,5.257 6.692875,5.137125 7.025375,4.892125 C7.35525,4.6515 7.515375,4.25425 7.515375,3.709125 C7.515375,3.406375 7.461125,3.156125 7.35525,2.961875 C7.244125,2.767625 7.098875,2.61625 6.915125,2.5095 C6.731375,2.398375 6.523125,2.32225 6.283375,2.281125 C6.047125,2.23475 5.7995,2.21725 5.54575,2.21725 L2.8665,2.21725 L2.8665,5.257 L5.7645,5.257 Z M6.134625,0 C6.757625,0 7.32025,0.053375 7.833875,0.165375 C8.344,0.273 8.77975,0.454125 9.146375,0.70175 C9.5095,0.95025 9.793,1.27925 9.996875,1.694 C10.194625,2.1035 10.2935,2.61625 10.2935,3.220875 C10.2935,3.87625 10.145625,4.424 9.848125,4.8615 C9.548875,5.298125 9.10875,5.655125 8.52075,5.933375 C9.321375,6.1635 9.91375,6.5695 10.308375,7.14525 C10.703,7.725375 10.896375,8.420125 10.896375,9.23475 C10.896375,9.893625 10.7695,10.462375 10.516625,10.93925 C10.262875,11.424 9.9155,11.815125 9.4885,12.117875 C9.057125,12.42325 8.56275,12.64725 8.008,12.7925 C7.459375,12.93775 6.890625,13.012125 6.307,13.012125 L0,13.012125 L0,0 L6.134625,0 Z" id="Fill-46"></path>
                <path d="M18.452,5.802125 C18.144875,5.462625 17.62425,5.278 16.988125,5.278 C16.575125,5.278 16.233,5.347125 15.96,5.48975 C15.691375,5.62975 15.472625,5.803 15.30375,6.008625 C15.136625,6.216875 15.022875,6.4365 14.9555,6.671875 C14.89075,6.902 14.849625,7.109375 14.839125,7.293125 L19.049625,7.293125 C18.986625,6.633375 18.76175,6.145125 18.452,5.802125 Z M15.47875,10.752875 C15.86725,11.130875 16.42725,11.321625 17.1535,11.321625 C17.674125,11.321625 18.12475,11.1895 18.503625,10.926125 C18.879,10.663625 19.1065,10.38275 19.19575,10.091375 L21.475125,10.091375 C21.10675,11.225375 20.552875,12.03475 19.793375,12.522125 C19.046125,13.012125 18.130875,13.2545 17.066,13.2545 C16.324875,13.2545 15.656375,13.1355 15.056125,12.898375 C14.4585,12.658625 13.95625,12.322625 13.535375,11.885125 C13.125,11.445875 12.8065,10.926125 12.578125,10.315375 C12.354125,9.709 12.240375,9.036125 12.240375,8.308125 C12.240375,7.602875 12.357625,6.94575 12.588625,6.33675 C12.824,5.726875 13.1495,5.19925 13.573875,4.75825 C14.004375,4.314625 14.50925,3.96375 15.101625,3.707375 C15.693125,3.45275 16.344125,3.324125 17.066,3.324125 C17.86225,3.324125 18.561375,3.478125 19.159875,3.7905 C19.75575,4.0985 20.244875,4.515875 20.629875,5.03825 C21.013125,5.560625 21.287,6.157375 21.45675,6.82675 C21.627375,7.494375 21.686875,8.192625 21.637,8.924125 L14.839125,8.924125 C14.839125,9.66875 15.089375,10.373125 15.47875,10.752875 Z" id="Fill-47"></path>
                <polygon id="Fill-52" points="14.30975 2.022125 19.5825 2.022125 19.5825 0.7385 14.30975 0.7385"></polygon>
            </g>
        </g>
    </g>
</svg>