<?xml version="1.0" encoding="UTF-8"?>
<svg width="15px" height="14px" viewBox="0 0 15 14" version="1.1" xmlns="http://www.w3.org/2000/svg" xmlns:xlink="http://www.w3.org/1999/xlink">
    <!-- Generator: sketchtool 49.3 (51167) - http://www.bohemiancoding.com/sketch -->
    <title>65981CBF-8686-4F8A-91CF-9FC71BCE982D</title>
    <desc>Created with sketchtool.</desc>
    <defs></defs>
    <g id="Page-1" stroke="none" stroke-width="1" fill="none" fill-rule="evenodd">
        <g id="Desktop" transform="translate(-502.000000, -52.000000)" fill="#40AAFF">
            <g id="dribbble-ball-mark" transform="translate(502.937500, 52.000000)">
                <path d="M7,0 C3.13558,0 0,3.13558 0,7 C0,10.86442 3.13558,14 7,14 C10.856832,14 14,10.86442 14,7 C14,3.13558 10.856832,0 7,0 Z M11.62364,3.226678 C12.458782,4.24403 12.95987,5.542306 12.97506,6.946856 C12.77766,6.908888 10.803688,6.506514 8.81454,6.757044 C8.768984,6.658358 8.731016,6.552056 8.685474,6.445768 C8.563996,6.15727 8.427328,5.86117 8.290674,5.58026 C10.492412,4.684386 11.494574,3.393712 11.62364,3.226678 Z M7,1.0325378 C8.51844,1.0325378 9.907814,1.60195 10.96312,2.535792 C10.856832,2.687636 9.953356,3.8948 7.827554,4.691974 C6.848156,2.892624 5.76247,1.41974 5.59545,1.191974 C6.04338,1.0856832 6.514102,1.0325378 7,1.0325378 Z M4.45662,1.594362 C4.616052,1.806938 5.67896,3.287424 6.673534,5.048806 C3.87961,5.792836 1.412152,5.77766 1.1464208,5.77768331 C1.533616,3.925166 2.786336,2.383948 4.45662,1.594362 Z M1.0173534,7.007588 C1.0173534,6.946856 1.0173534,6.886124 1.0173534,6.825378 C1.2754882,6.832966 4.17571,6.870934 7.159432,5.97506 C7.334054,6.309114 7.493486,6.650756 7.64533,6.992412 C7.569408,7.01519 7.485898,7.037968 7.409976,7.060732 C4.327554,8.05532 2.687636,10.773322 2.550982,11.001088 C1.60195,9.945768 1.0173534,8.541218 1.0173534,7.007588 Z M7,12.982648 C5.618228,12.982648 4.34273,12.511926 3.332966,11.72234 C3.439268,11.502176 4.65402,9.16377 8.02494,7.986986 C8.04013,7.979398 8.047718,7.979398 8.062908,7.971796 C8.905638,10.150756 9.247294,11.980472 9.338392,12.504338 C8.61714,12.815614 7.827554,12.982648 7,12.982648 Z M10.33298,11.957708 C10.272234,11.593274 9.95337,9.847068 9.171372,7.698488 C11.046644,7.402388 12.686548,7.888286 12.891536,7.95662 C12.633404,9.619302 11.676784,11.054232 10.33298,11.957708 Z" id="Shape"></path>
            </g>
        </g>
    </g>
</svg>