<?xml version="1.0" encoding="UTF-8"?>
<svg width="14px" height="14px" viewBox="0 0 14 14" version="1.1" xmlns="http://www.w3.org/2000/svg" xmlns:xlink="http://www.w3.org/1999/xlink">
    <!-- Generator: sketchtool 49.3 (51167) - http://www.bohemiancoding.com/sketch -->
    <title>CBAEC162-A8EC-4D72-BA24-3FC36EF677C8</title>
    <desc>Created with sketchtool.</desc>
    <defs></defs>
    <g id="Page-1" stroke="none" stroke-width="1" fill="none" fill-rule="evenodd">
        <g id="Desktop" transform="translate(-548.000000, -52.000000)" fill="#40AAFF">
            <g id="Logo-Linkedin" transform="translate(548.000000, 52.000000)">
                <path d="M11.9296131,11.9298472 L9.8545596,11.9298472 L9.8545596,8.68068056 C9.8545596,7.90591667 9.84036555,6.90929167 8.77552012,6.90929167 C7.69511958,6.90929167 7.52926308,7.75327778 7.52926308,8.62468056 L7.52926308,11.9298472 L5.45459848,11.9298472 L5.45459848,5.24854167 L7.44614038,5.24854167 L7.44614038,6.16145833 L7.47394517,6.16145833 C7.75121524,5.63626389 8.42854365,5.08248611 9.4387517,5.08248611 C11.5414155,5.08248611 11.9296131,6.46634722 11.9296131,8.26515278 L11.9296131,11.9298472 Z M3.11433016,4.33523611 C2.44876531,4.33523611 1.91016916,3.79575 1.91016916,3.13104167 C1.91016916,2.46691667 2.44876531,1.92743056 3.11433016,1.92743056 C3.77824227,1.92743056 4.3177134,2.46691667 4.3177134,3.13104167 C4.3177134,3.79575 3.77824227,4.33523611 3.11433016,4.33523611 Z M2.07563679,11.9298472 L4.15224577,11.9298472 L4.15224577,5.24854167 L2.07563679,5.24854167 L2.07563679,11.9298472 Z M12.9637371,0 L1.0333463,0 C0.463251021,0 0,0.451888889 0,1.00877778 L0,12.9898611 C0,13.5474306 0.463251021,14 1.0333463,14 L12.9637371,14 C13.5348046,14 14,13.5474306 14,12.9898611 L14,1.00877778 C14,0.451888889 13.5348046,0 12.9637371,0 Z" id="Fill-1"></path>
            </g>
        </g>
    </g>
</svg>