<svg width="24" height="24" viewBox="0 0 24 24" fill="none" xmlns="http://www.w3.org/2000/svg">
<path d="M7.375 16.7811L8.625 15.2191L4.601 12.0001L8.625 8.7811L7.375 7.2191L2.375 11.2191C2.138 11.4091 2 11.6961 2 12.0001C2 12.3041 2.138 12.5911 2.375 12.7811L7.375 16.7811ZM16.625 7.2191L15.375 8.7811L19.399 12.0001L15.375 15.2191L16.625 16.7811L21.625 12.7811C21.862 12.5911 22 12.3041 22 12.0001C22 11.6961 21.862 11.4091 21.625 11.2191L16.625 7.2191Z" fill="#859FB4"/>
<path d="M14.976 3.21649L10.9766 21.2165L9.02323 20.7825L13.0226 2.78247L14.976 3.21649Z" fill="#859FB4"/>
</svg>
