<svg width="24" height="24" viewBox="0 0 24 24" fill="none" xmlns="http://www.w3.org/2000/svg">
<path d="M11.0001 4L10.5001 3L10.0001 4L9.00006 4.125L9.83406 4.833L9.50006 6L10.5001 5.334L11.5001 6L11.1661 4.833L12.0001 4.125L11.0001 4ZM19.3341 14.666L18.5001 13L17.6661 14.666L16.0001 14.875L17.3891 16.056L16.8341 18L18.5001 16.889L20.1661 18L19.6111 16.056L21.0001 14.875L19.3341 14.666ZM6.66706 6.333L6.00006 5L5.33306 6.333L4.00006 6.5L5.11106 7.444L4.66706 9L6.00006 8.111L7.33306 9L6.88906 7.444L8.00006 6.5L6.66706 6.333ZM3.41406 17C3.41406 17.534 3.62206 18.036 4.00006 18.414L5.58606 20C5.96406 20.378 6.46606 20.586 7.00006 20.586C7.53406 20.586 8.03606 20.378 8.41406 20L20.0001 8.414C20.3781 8.036 20.5861 7.534 20.5861 7C20.5861 6.466 20.3781 5.964 20.0001 5.586L18.4141 4C17.6581 3.244 16.3421 3.244 15.5861 4L4.00006 15.586C3.62206 15.964 3.41406 16.466 3.41406 17ZM17.0001 5.414L18.5861 7L15.0001 10.586L13.4141 9L17.0001 5.414Z" fill="#859FB4"/>
</svg>
