<svg width="24" height="24" viewBox="0 0 24 24" fill="none" xmlns="http://www.w3.org/2000/svg">
<path d="M11.9998 10.0001C11.9998 9.46809 11.7908 8.96609 11.4118 8.58609C10.6558 7.83209 9.34583 7.83009 8.58583 8.58809L7.17383 7.17209C8.68683 5.66009 11.3118 5.66009 12.8258 7.17209C13.5838 7.93109 13.9998 8.93509 13.9998 10.0001H11.9998Z" fill="#859FB4"/>
<path fill-rule="evenodd" clip-rule="evenodd" d="M14.897 16.312C13.543 17.365 11.846 18 10 18C5.589 18 2 14.411 2 10C2 5.589 5.589 2 10 2C14.411 2 18 5.589 18 10C18 11.846 17.365 13.543 16.311 14.898L20.707 19.294L19.293 20.708L14.897 16.312ZM16 10C16 6.691 13.309 4 10 4C6.691 4 4 6.691 4 10C4 13.309 6.691 16 10 16C13.309 16 16 13.309 16 10Z" fill="#859FB4"/>
</svg>
