<svg width="24" height="24" viewBox="0 0 24 24" fill="none" xmlns="http://www.w3.org/2000/svg">
<path d="M15 12C15 13.6569 13.6569 15 12 15C10.3431 15 9 13.6569 9 12C9 10.3431 10.3431 9 12 9C13.6569 9 15 10.3431 15 12Z" fill="#859FB4"/>
<path fill-rule="evenodd" clip-rule="evenodd" d="M13 2V4.069C16.611 4.522 19.478 7.389 19.931 11H22V13H19.931C19.478 16.612 16.611 19.478 13 19.931V22H11V19.931C7.388 19.478 4.522 16.611 4.069 13H2V11H4.069C4.522 7.389 7.389 4.522 11 4.069V2H13ZM6 12C6 15.309 8.691 18 12 18C15.309 18 18 15.309 18 12C18 8.691 15.309 6 12 6C8.691 6 6 8.691 6 12Z" fill="#859FB4"/>
</svg>
