<svg width="40" height="40" viewBox="0 0 40 40" fill="none" xmlns="http://www.w3.org/2000/svg">
<path d="M20 0C6.23114 0 0 5.17904 0 20C0 33.7689 5.17904 40 20 40C33.7689 40 40 34.821 40 20C40 6.23114 34.821 0 20 0Z" fill="url(#paint0_linear)"/>
<path d="M20.0003 30.6667C20.0003 30.9122 19.8012 31.1121 19.556 31.1023C17.04 31.0023 14.5515 30.0518 12.5581 28.2506C12.4174 28.1235 12.2791 27.9922 12.1435 27.8566C7.80437 23.5175 7.80437 16.4824 12.1435 12.1433C16.4827 7.80414 23.5179 7.80414 27.857 12.1433C32.0908 16.377 32.1936 23.1774 28.1654 27.5358C27.9988 27.716 27.7163 27.7159 27.5427 27.5423L24.2429 24.2425C24.0693 24.0689 24.0712 23.7883 24.2305 23.6016C26.0931 21.4189 25.9924 18.1354 23.9286 16.0716C21.7591 13.902 18.2415 13.902 16.0719 16.0716C14.0081 18.1354 13.9075 21.4189 15.7701 23.6016C15.9294 23.7883 16.2126 23.7875 16.3862 23.614L19.2416 20.7586C19.5215 20.4786 20.0003 20.6769 20.0003 21.0729L20.0003 30.6667Z" fill="white"/>
<defs>
<linearGradient id="paint0_linear" x1="0" y1="0" x2="40" y2="40" gradientUnits="userSpaceOnUse">
<stop stop-color="#FF26B2"/>
<stop offset="0.640625" stop-color="#851BD9"/>
<stop offset="1" stop-color="#3F0FFF"/>
</linearGradient>
</defs>
</svg>
