<svg width="40" height="40" viewBox="0 0 40 40" fill="none" xmlns="http://www.w3.org/2000/svg">
<path fill-rule="evenodd" clip-rule="evenodd" d="M0 20C0 5.17904 6.23114 0 20 0C34.821 0 40 6.23114 40 20C40 34.821 33.7689 40 20 40C5.17904 40 0 33.7689 0 20ZM19.5555 31.1021C19.8007 31.1118 19.9998 30.9119 19.9998 30.6665L19.9998 21.0726C19.9998 20.6767 19.5211 20.4784 19.2411 20.7584L16.3857 23.6137C16.2121 23.7873 15.9289 23.7881 15.7696 23.6014C13.907 21.4187 14.0076 18.1351 16.0714 16.0713C18.241 13.9018 21.7586 13.9018 23.9282 16.0713C25.992 18.1351 26.0926 21.4187 24.23 23.6014C24.0707 23.7881 24.0689 24.0687 24.2424 24.2423L27.5423 27.5421C27.7158 27.7156 27.9983 27.7158 28.1649 27.5355C32.1931 23.1771 32.0903 16.3768 27.8565 12.143C23.5174 7.80389 16.4822 7.80389 12.143 12.143C7.80388 16.4821 7.80388 23.5172 12.143 27.8563C12.2786 27.9919 12.4169 28.1233 12.5576 28.2504C14.5511 30.0516 17.0395 31.0021 19.5555 31.1021Z" fill="white"/>
</svg>
